ply
format ascii 1.0
comment VCGLIB generated
element vertex 288
property float x
property float y
property float z
property float nx
property float ny
property float nz
property uchar red
property uchar green
property uchar blue
property uchar alpha
property float texture_u
property float texture_v
element face 512
property list uchar int vertex_indices
end_header
5.595058e-05 -1280 1280 -1 -4.371139e-08 0 200 200 200 255 1 0
4.849232e-05 -1109.375 1280 -1 -4.371139e-08 0 200 200 200 255 1 0.06665
5.109538e-05 -1168.926 1205.518 -1 -4.371139e-08 0 200 200 200 255 0.970905 0.043388
4.43056e-05 -1013.594 1197.676 -1 -4.371139e-08 0 200 200 200 255 0.967842 0.104065
4.168973e-05 -953.7498 1280 -1 -4.371139e-08 0 200 200 200 255 1 0.127441
3.756745e-05 -859.4431 1177.205 -1 -4.371139e-08 0 200 200 200 255 0.959845 0.16428
3.455247e-05 -790.4685 1280 -1 -4.371139e-08 0 200 200 200 255 1 0.191223
2.94499e-05 -673.7352 1163.325 -1 -4.371139e-08 0 200 200 200 255 0.954424 0.236822
2.68825e-05 -615 1280 -1 -4.371139e-08 0 200 200 200 255 1 0.259766
2.275874e-05 -520.6592 1226.499 -1 -4.371139e-08 0 200 200 200 255 0.979101 0.296618
2.129564e-05 -487.1875 1280 -1 -4.371139e-08 0 200 200 200 255 1 0.309692
1.502579e-05 -343.75 1280 -1 -4.371139e-08 0 200 200 200 255 1 0.365723
1.209181e-05 -276.6284 1216.506 -1 -4.371139e-08 0 200 200 200 255 0.975198 0.391942
6.625007e-06 -151.5625 1280 -1 -4.371139e-08 0 200 200 200 255 1 0.440796
3.704369e-06 -84.74609 1222.49 -1 -4.371139e-08 0 200 200 200 255 0.977535 0.466896
-3.218158e-06 73.62286 1232.031 -1 -4.371139e-08 0 200 200 200 255 0.981262 0.528759
-1.775767e-06 40.62481 1280 -1 -4.371139e-08 0 200 200 200 255 1 0.515869
-7.540206e-06 172.4998 1280 -1 -4.371139e-08 0 200 200 200 255 1 0.567383
-1.065048e-05 243.6546 1162.725 -1 -4.371139e-08 0 200 200 200 255 0.954189 0.595178
-1.443841e-05 330.3123 1280 -1 -4.371139e-08 0 200 200 200 255 1 0.629028
-1.987672e-05 454.7264 1218.569 -1 -4.371139e-08 0 200 200 200 255 0.976004 0.677628
-2.342656e-05 535.9373 1280 -1 -4.371139e-08 0 200 200 200 255 1 0.709351
-2.83442e-05 648.4397 1215.532 -1 -4.371139e-08 0 200 200 200 255 0.974817 0.753297
-3.021549e-05 691.2498 1280 -1 -4.371139e-08 0 200 200 200 255 1 0.770019
-3.59827e-05 823.1882 1210.205 -1 -4.371139e-08 0 200 200 200 255 0.972736 0.821558
-3.710003e-05 848.7498 1280 -1 -4.371139e-08 0 200 200 200 255 1 0.831543
-4.393165e-05 1005.039 1233.74 -1 -4.371139e-08 0 200 200 200 255 0.98193 0.892593
-4.394358e-05 1005.312 1280 -1 -4.371139e-08 0 200 200 200 255 1 0.8927
-4.936226e-05 1129.277 1159.907 -1 -4.371139e-08 0 200 200 200 255 0.953089 0.941124
-5.02681e-05 1150 1280 -1 -4.371139e-08 0 200 200 200 255 1 0.949219
-5.595058e-05 1280 1280 -1 -4.371139e-08 0 200 200 200 255 1 1
1.767668e-06 -40.43952 1091.699 -1 -4.371139e-08 0 200 200 200 255 0.926445 0.484203
5.595058e-05 -1280 1132.5 -1 -4.371139e-08 0 200 200 200 255 0.942383 0
1.663423e-05 -380.5469 1085.107 -1 -4.371139e-08 0 200 200 200 255 0.92387 0.351349
-1.853187e-05 423.9598 1037.822 -1 -4.371139e-08 0 200 200 200 255 0.905399 0.665609
5.3266e-05 -1218.584 1052.31 -1 -4.371139e-08 0 200 200 200 255 0.911058 0.023991
-2.412834e-05 551.992 1090.654 -1 -4.371139e-08 0 200 200 200 255 0.926037 0.715622
-3.150709e-05 720.7981 1072.847 -1 -4.371139e-08 0 200 200 200 255 0.919081 0.781562
4.476851e-05 -1024.184 1041.963 -1 -4.371139e-08 0 200 200 200 255 0.907017 0.099928
2.262149e-05 -517.5195 1069.219 -1 -4.371139e-08 0 200 200 200 255 0.917664 0.297844
-4.058371e-05 928.4471 1060.991 -1 -4.371139e-08 0 200 200 200 255 0.91445 0.862675
-5.595058e-05 1280 1091.875 -1 -4.371139e-08 0 200 200 200 255 0.926514 1
9.505841e-06 -217.4683 1004.673 -1 -4.371139e-08 0 200 200 200 255 0.89245 0.415051
-5.271917e-05 1206.074 1012.412 -1 -4.371139e-08 0 200 200 200 255 0.895473 0.971123
-1.316292e-05 301.1326 984.1602 -1 -4.371139e-08 0 200 200 200 255 0.884438 0.61763
3.419988e-05 -782.4021 1017.007 -1 -4.371139e-08 0 200 200 200 255 0.897268 0.194374
-4.990088e-06 114.1599 995.83 -1 -4.371139e-08 0 200 200 200 255 0.888996 0.544594
-3.332736e-05 762.4412 938.5938 -1 -4.371139e-08 0 200 200 200 255 0.866638 0.797829
2.476683e-05 -566.5991 936.0888 -1 -4.371139e-08 0 200 200 200 255 0.86566 0.278672
-4.800057e-05 1098.125 899.2919 -1 -4.371139e-08 0 200 200 200 255 0.851286 0.928955
3.160539e-06 -72.30471 955.7275 -1 -4.371139e-08 0 200 200 200 255 0.873331 0.471756
-2.469693e-05 564.9998 953.8329 -1 -4.371139e-08 0 200 200 200 255 0.872591 0.720703
-5.595058e-05 1280 936.8749 -1 -4.371139e-08 0 200 200 200 255 0.865967 1
5.595058e-05 -1280 962.4999 -1 -4.371139e-08 0 200 200 200 255 0.875977 0
-4.166892e-05 953.2738 889.2089 -1 -4.371139e-08 0 200 200 200 255 0.847347 0.872373
5.225666e-05 -1195.493 855.6469 -1 -4.371139e-08 0 200 200 200 255 0.834237 0.03301
1.555212e-05 -355.791 885.3515 -1 -4.371139e-08 0 200 200 200 255 0.845841 0.361019
-6.693298e-06 153.1248 871.1475 -1 -4.371139e-08 0 200 200 200 255 0.840292 0.559814
3.904741e-05 -893.3007 863.252 -1 -4.371139e-08 0 200 200 200 255 0.837208 0.151055
4.570485e-06 -104.5605 826.892 -1 -4.371139e-08 0 200 200 200 255 0.823005 0.459156
-1.835696e-05 419.9583 817.8076 -1 -4.371139e-08 0 200 200 200 255 0.819456 0.664046
-5.326473e-05 1218.555 816.499 -1 -4.371139e-08 0 200 200 200 255 0.818945 0.975998
3.16678e-05 -724.4749 822.2363 -1 -4.371139e-08 0 200 200 200 255 0.821186 0.217002
4.410838e-05 -1009.082 769.1015 -1 -4.371139e-08 0 200 200 200 255 0.80043 0.105827
5.595058e-05 -1280 817.1874 -1 -4.371139e-08 0 200 200 200 255 0.819214 0
-2.874108e-05 657.5193 797.2363 -1 -4.371139e-08 0 200 200 200 255 0.81142 0.756843
-3.480304e-05 796.2009 788.5742 -1 -4.371139e-08 0 200 200 200 255 0.808037 0.811016
1.099887e-05 -251.6248 718.8378 -1 -4.371139e-08 0 200 200 200 255 0.780796 0.401709
-5.595058e-05 1280 751.0938 -1 -4.371139e-08 0 200 200 200 255 0.793396 1
2.465777e-05 -564.104 701.3281 -1 -4.371139e-08 0 200 200 200 255 0.773956 0.279647
1.895501e-05 -433.6401 707.705 -1 -4.371139e-08 0 200 200 200 255 0.776447 0.330609
-2.561314e-06 58.59603 695.9913 -1 -4.371139e-08 0 200 200 200 255 0.771872 0.522889
3.882415e-05 -888.1931 700.7811 -1 -4.371139e-08 0 200 200 200 255 0.773743 0.15305
-1.045402e-05 239.16 771.6699 -1 -4.371139e-08 0 200 200 200 255 0.801434 0.593422
-4.619319e-05 1056.777 726.1157 -1 -4.371139e-08 0 200 200 200 255 0.783639 0.912804
5.401386e-05 -1235.693 667.8027 -1 -4.371139e-08 0 200 200 200 255 0.76086 0.017307
-2.623942e-05 600.2879 647.8002 -1 -4.371139e-08 0 200 200 200 255 0.753047 0.734487
4.80872e-05 -1100.107 678.5645 -1 -4.371139e-08 0 200 200 200 255 0.765064 0.070271
-1.670615e-05 382.1922 676.6943 -1 -4.371139e-08 0 200 200 200 255 0.764334 0.649294
5.595058e-05 -1280 652.4999 -1 -4.371139e-08 0 200 200 200 255 0.754883 0
3.105109e-05 -710.3661 600.6444 -1 -4.371139e-08 0 200 200 200 255 0.734627 0.222513
-4.048532e-05 926.1962 647.0142 -1 -4.371139e-08 0 200 200 200 255 0.75274 0.861795
-5.401879e-05 1235.806 634.7338 -1 -4.371139e-08 0 200 200 200 255 0.747943 0.982737
-9.004581e-06 206.0008 585.0781 -1 -4.371139e-08 0 200 200 200 255 0.728546 0.580469
-3.398223e-05 777.4229 550.1221 -1 -4.371139e-08 0 200 200 200 255 0.714891 0.803681
1.532609e-05 -350.6201 509.6875 -1 -4.371139e-08 0 200 200 200 255 0.699097 0.363039
4.484002e-05 -1025.82 572.6757 -1 -4.371139e-08 0 200 200 200 255 0.723701 0.099289
2.117697e-05 -484.4727 560.752 -1 -4.371139e-08 0 200 200 200 255 0.719044 0.310753
-1.516472e-05 346.9285 508.1201 -1 -4.371139e-08 0 200 200 200 255 0.698484 0.635519
-2.098231e-05 480.0193 503.3838 -1 -4.371139e-08 0 200 200 200 255 0.696634 0.687508
3.854413e-05 -881.7869 553.1055 -1 -4.371139e-08 0 200 200 200 255 0.716057 0.155552
-5.595058e-05 1280 564.9999 -1 -4.371139e-08 0 200 200 200 255 0.720703 1
7.711388e-06 -176.416 546.8114 -1 -4.371139e-08 0 200 200 200 255 0.713598 0.431087
-1.01861e-06 23.30308 480.9375 -1 -4.371139e-08 0 200 200 200 255 0.687866 0.509103
-4.806544e-05 1099.609 516.4551 -1 -4.371139e-08 0 200 200 200 255 0.70174 0.929535
5.219883e-05 -1194.17 483.3545 -1 -4.371139e-08 0 200 200 200 255 0.68881 0.033527
2.526915e-05 -578.0908 379.574 -1 -4.371139e-08 0 200 200 200 255 0.648271 0.274183
-5.366425e-05 1227.695 480.8398 -1 -4.371139e-08 0 200 200 200 255 0.687828 0.979568
5.595058e-05 -1280 455.3125 -1 -4.371139e-08 0 200 200 200 255 0.677856 0
3.941169e-05 -901.6344 426.3159 -1 -4.371139e-08 0 200 200 200 255 0.66653 0.147799
-2.541977e-05 581.5366 418.4009 -1 -4.371139e-08 0 200 200 200 255 0.663438 0.727163
-4.001619e-05 915.4637 401.5308 -1 -4.371139e-08 0 200 200 200 255 0.656848 0.857603
-5.595058e-05 1280 431.25 -1 -4.371139e-08 0 200 200 200 255 0.668457 1
-6.397477e-06 146.3572 385.4199 -1 -4.371139e-08 0 200 200 200 255 0.650555 0.557171
-3.196351e-05 731.24 354.5557 -1 -4.371139e-08 0 200 200 200 255 0.638498 0.785641
5.123067e-06 -117.2021 396.9775 -1 -4.371139e-08 0 200 200 200 255 0.655069 0.454218
-4.82426e-05 1103.662 387.0508 -1 -4.371139e-08 0 200 200 200 255 0.651192 0.931118
3.199297e-05 -731.9139 346.4941 -1 -4.371139e-08 0 200 200 200 255 0.635349 0.214096
-1.441157e-05 329.6983 364.3567 -1 -4.371139e-08 0 200 200 200 255 0.642327 0.628788
-5.362329e-05 1226.758 343.6182 -1 -4.371139e-08 0 200 200 200 255 0.634226 0.979202
5.205476e-05 -1190.874 285.127 -1 -4.371139e-08 0 200 200 200 255 0.611378 0.034815
1.744166e-05 -399.0186 311.9922 -1 -4.371139e-08 0 200 200 200 255 0.621872 0.344133
5.595058e-05 -1280 312.5 -1 -4.371139e-08 0 200 200 200 255 0.62207 0
1.145759e-05 -262.1191 299.1797 -1 -4.371139e-08 0 200 200 200 255 0.616867 0.39761
4.6557e-06 -106.51 246.7188 -1 -4.371139e-08 0 200 200 200 255 0.596375 0.458394
-4.780391e-06 109.3626 237.7539 -1 -4.371139e-08 0 200 200 200 255 0.592873 0.54272
-5.595058e-05 1280 246.25 -1 -4.371139e-08 0 200 200 200 255 0.596191 1
4.462872e-05 -1020.986 231.6211 -1 -4.371139e-08 0 200 200 200 255 0.590477 0.101177
3.615078e-05 -827.0334 188.9404 -1 -4.371139e-08 0 200 200 200 255 0.573805 0.17694
-2.55735e-05 585.0535 237.4756 -1 -4.371139e-08 0 200 200 200 255 0.592764 0.728536
-5.176512e-05 1184.248 191.8591 -1 -4.371139e-08 0 200 200 200 255 0.574945 0.962597
2.207318e-05 -504.9756 221.5039 -1 -4.371139e-08 0 200 200 200 255 0.586525 0.302744
-3.435932e-05 786.0496 163.6914 -1 -4.371139e-08 0 200 200 200 255 0.563942 0.807051
2.862327e-05 -654.8241 216.7188 -1 -4.371139e-08 0 200 200 200 255 0.584656 0.244209
-4.071348e-05 931.4159 206.0645 -1 -4.371139e-08 0 200 200 200 255 0.580494 0.863834
6.538598e-07 -14.95857 139.5776 -1 -4.371139e-08 0 200 200 200 255 0.554523 0.494157
-2.079257e-05 475.6785 122.4121 -1 -4.371139e-08 0 200 200 200 255 0.547817 0.685812
1.317254e-05 -301.3525 167.5293 -1 -4.371139e-08 0 200 200 200 255 0.565441 0.382284
5.595058e-05 -1280 125 -1 -4.371139e-08 0 200 200 200 255 0.548828 0
-1.452997e-05 332.407 101.0034 -1 -4.371139e-08 0 200 200 200 255 0.539455 0.629847
5.164924e-05 -1181.597 128.0078 -1 -4.371139e-08 0 200 200 200 255 0.550003 0.038439
2.949504e-05 -674.7679 90.64452 -1 -4.371139e-08 0 200 200 200 255 0.535408 0.236419
2.194502e-05 -502.0435 52.18262 -1 -4.371139e-08 0 200 200 200 255 0.520384 0.303889
-4.436409e-05 1014.932 60.53711 -1 -4.371139e-08 0 200 200 200 255 0.523647 0.896458
7.288362e-06 -166.7383 74.16016 -1 -4.371139e-08 0 200 200 200 255 0.528969 0.434868
-2.901513e-05 663.7888 114.4531 -1 -4.371139e-08 0 200 200 200 255 0.544708 0.759292
4.193134e-05 -959.2772 50.73975 -1 -4.371139e-08 0 200 200 200 255 0.51982 0.125282
-7.36519e-06 168.4959 29.01367 -1 -4.371139e-08 0 200 200 200 255 0.511334 0.565819
-5.369585e-05 1228.418 42.83203 -1 -4.371139e-08 0 200 200 200 255 0.516731 0.979851
-2.557318e-05 585.0462 4.809569 -1 -4.371139e-08 0 200 200 200 255 0.501879 0.728534
-5.595058e-05 1280 51.25 -1 -4.371139e-08 0 200 200 200 255 0.520019 1
5.221356e-05 -1194.507 -10.3418 -1 -4.371139e-08 0 200 200 200 255 0.49596 0.033396
3.472194e-05 -794.3455 -60.52246 -1 -4.371139e-08 0 200 200 200 255 0.476358 0.189709
1.432722e-05 -327.7686 -20.05371 -1 -4.371139e-08 0 200 200 200 255 0.492166 0.371965
-3.787778e-05 866.5427 -18.17383 -1 -4.371139e-08 0 200 200 200 255 0.492901 0.838493
-4.747114e-05 1086.013 -110.5737 -1 -4.371139e-08 0 200 200 200 255 0.456807 0.924224
-3.155159e-05 721.8162 -29.56055 -1 -4.371139e-08 0 200 200 200 255 0.488453 0.781959
5.595058e-05 -1280 -36.875 -1 -4.371139e-08 0 200 200 200 255 0.485596 0
4.658677e-05 -1065.781 -62.55859 -1 -4.371139e-08 0 200 200 200 255 0.475563 0.083679
7.064255e-06 -161.6113 -152.9358 -1 -4.371139e-08 0 200 200 200 255 0.440259 0.436871
-1.289442e-05 294.99 -89.29688 -1 -4.371139e-08 0 200 200 200 255 0.465118 0.615231
-1.98605e-05 454.3553 -74.64844 -1 -4.371139e-08 0 200 200 200 255 0.470841 0.677482
2.638045e-05 -603.5143 -143.4595 -1 -4.371139e-08 0 200 200 200 255 0.443961 0.264252
1.846838e-05 -422.5073 -123.8721 -1 -4.371139e-08 0 200 200 200 255 0.451613 0.334958
4.795909e-07 -10.97176 -112.4927 -1 -4.371139e-08 0 200 200 200 255 0.456057 0.495714
-4.106244e-05 939.3992 -136.7383 -1 -4.371139e-08 0 200 200 200 255 0.446587 0.866953
4.184479e-05 -957.2972 -156.8115 -1 -4.371139e-08 0 200 200 200 255 0.438745 0.126056
-5.595058e-05 1280 -85.62499 -1 -4.371139e-08 0 200 200 200 255 0.466553 1
-7.382477e-06 168.8914 -163.6182 -1 -4.371139e-08 0 200 200 200 255 0.436087 0.565973
-3.518253e-05 804.8826 -162.2168 -1 -4.371139e-08 0 200 200 200 255 0.436634 0.814407
-5.358785e-05 1225.947 -155.9766 -1 -4.371139e-08 0 200 200 200 255 0.439072 0.978886
5.173335e-05 -1183.521 -179.1211 -1 -4.371139e-08 0 200 200 200 255 0.430031 0.037687
-2.774904e-05 634.824 -157.0508 -1 -4.371139e-08 0 200 200 200 255 0.438652 0.747978
5.595058e-05 -1280 -166.5625 -1 -4.371139e-08 0 200 200 200 255 0.434936 0
-2.080431e-05 475.9471 -207.8687 -1 -4.371139e-08 0 200 200 200 255 0.418801 0.685917
-5.595058e-05 1280 -268.5938 -1 -4.371139e-08 0 200 200 200 255 0.395081 1
3.495288e-05 -799.6287 -240.6885 -1 -4.371139e-08 0 200 200 200 255 0.405981 0.187645
-1.215786e-05 278.1395 -316.4893 -1 -4.371139e-08 0 200 200 200 255 0.376371 0.608648
-4.162389e-05 952.2435 -287.8052 -1 -4.371139e-08 0 200 200 200 255 0.387576 0.87197
4.285722e-05 -980.4589 -283.8867 -1 -4.371139e-08 0 200 200 200 255 0.389107 0.117008
2.349402e-05 -537.4805 -293.8135 -1 -4.371139e-08 0 200 200 200 255 0.385229 0.290047
2.842094e-06 -65.01953 -345.498 -1 -4.371139e-08 0 200 200 200 255 0.36504 0.474602
-4.97878e-06 113.9012 -314.4727 -1 -4.371139e-08 0 200 200 200 255 0.377159 0.544493
5.070626e-05 -1160.024 -324.917 -1 -4.371139e-08 0 200 200 200 255 0.373079 0.046865
1.263959e-05 -289.1602 -287.6465 -1 -4.371139e-08 0 200 200 200 255 0.387638 0.387047
5.595058e-05 -1280 -310.3125 -1 -4.371139e-08 0 200 200 200 255 0.378784 0
-3.338392e-05 763.7351 -384.5752 -1 -4.371139e-08 0 200 200 200 255 0.349775 0.798334
-4.814123e-05 1101.343 -386.5771 -1 -4.371139e-08 0 200 200 200 255 0.348993 0.930212
-2.858144e-05 653.8671 -313.999 -1 -4.371139e-08 0 200 200 200 255 0.377344 0.755417
-5.352341e-05 1224.473 -334.3164 -1 -4.371139e-08 0 200 200 200 255 0.369408 0.97831
8.374957e-06 -191.5967 -382.207 -1 -4.371139e-08 0 200 200 200 255 0.3507 0.425157
3.144914e-05 -719.4724 -346.1035 -1 -4.371139e-08 0 200 200 200 255 0.364803 0.218956
-1.918701e-05 438.9476 -432.2168 -1 -4.371139e-08 0 200 200 200 255 0.331165 0.671464
3.702063e-05 -846.9333 -393.3984 -1 -4.371139e-08 0 200 200 200 255 0.346329 0.169167
-2.512038e-05 574.6873 -431.0449 -1 -4.371139e-08 0 200 200 200 255 0.331623 0.724487
4.213805e-05 -964.0062 -455.5396 -1 -4.371139e-08 0 200 200 200 255 0.322055 0.123435
1.690572e-05 -386.7578 -460.0781 -1 -4.371139e-08 0 200 200 200 255 0.320282 0.348923
-8.439135e-07 19.30649 -482.5195 -1 -4.371139e-08 0 200 200 200 255 0.311516 0.507542
2.481816e-05 -567.7734 -417.5488 -1 -4.371139e-08 0 200 200 200 255 0.336895 0.278214
5.595058e-05 -1280 -494.0625 -1 -4.371139e-08 0 200 200 200 255 0.307007 0
5.198285e-05 -1189.229 -519.724 -1 -4.371139e-08 0 200 200 200 255 0.296983 0.035458
-6.579324e-06 150.5174 -438.9014 -1 -4.371139e-08 0 200 200 200 255 0.328554 0.558796
-4.028276e-05 921.5623 -446.8164 -1 -4.371139e-08 0 200 200 200 255 0.325462 0.859985
3.350793e-05 -766.5721 -505.6494 -1 -4.371139e-08 0 200 200 200 255 0.302481 0.200558
-1.165843e-05 266.7137 -503.9331 -1 -4.371139e-08 0 200 200 200 255 0.303151 0.604185
-5.595058e-05 1280 -484.6875 -1 -4.371139e-08 0 200 200 200 255 0.310669 1
-5.307646e-05 1214.248 -583.7354 -1 -4.371139e-08 0 200 200 200 255 0.271978 0.974316
-4.462063e-05 1020.801 -537.7538 -1 -4.371139e-08 0 200 200 200 255 0.28994 0.89875
2.348356e-05 -537.2412 -553.5106 -1 -4.371139e-08 0 200 200 200 255 0.283785 0.29014
8.21072e-06 -187.8394 -536.2108 -1 -4.371139e-08 0 200 200 200 255 0.290543 0.426625
-2.740247e-05 626.8955 -592.2606 -1 -4.371139e-08 0 200 200 200 255 0.268648 0.744881
4.605489e-05 -1053.613 -597.0264 -1 -4.371139e-08 0 200 200 200 255 0.266787 0.088432
-3.641811e-05 833.1492 -595.3173 -1 -4.371139e-08 0 200 200 200 255 0.267454 0.825449
-4.589258e-06 104.99 -593.7694 -1 -4.371139e-08 0 200 200 200 255 0.268059 0.541012
-1.90058e-05 434.8021 -631.2598 -1 -4.371139e-08 0 200 200 200 255 0.253414 0.669845
2.975447e-05 -680.703 -632.5977 -1 -4.371139e-08 0 200 200 200 255 0.252892 0.2341
1.584966e-06 -36.2598 -634.1796 -1 -4.371139e-08 0 200 200 200 255 0.252274 0.485836
3.740012e-05 -855.615 -654.7119 -1 -4.371139e-08 0 200 200 200 255 0.244253 0.165775
1.758231e-05 -402.2363 -630.4492 -1 -4.371139e-08 0 200 200 200 255 0.253731 0.342876
-4.774787e-05 1092.344 -656.9531 -1 -4.371139e-08 0 200 200 200 255 0.243378 0.926697
-5.595058e-05 1280 -623.1249 -1 -4.371139e-08 0 200 200 200 255 0.256592 1
-1.03601e-05 237.0115 -646.9335 -1 -4.371139e-08 0 200 200 200 255 0.247292 0.592583
-4.161119e-05 951.953 -661.621 -1 -4.371139e-08 0 200 200 200 255 0.241554 0.871857
5.595058e-05 -1280 -664.3749 -1 -4.371139e-08 0 200 200 200 255 0.240479 0
8.965105e-06 -205.0977 -668.1835 -1 -4.371139e-08 0 200 200 200 255 0.238991 0.419884
2.413539e-05 -552.1533 -729.0869 -1 -4.371139e-08 0 200 200 200 255 0.2152 0.284315
-3.865718e-06 88.43731 -741.101 -1 -4.371139e-08 0 200 200 200 255 0.210507 0.534546
-1.555019e-05 355.7469 -751.5014 -1 -4.371139e-08 0 200 200 200 255 0.206445 0.638964
5.37334e-05 -1229.277 -744.7949 -1 -4.371139e-08 0 200 200 200 255 0.209064 0.019814
4.009346e-05 -917.2313 -850.8178 -1 -4.371139e-08 0 200 200 200 255 0.167649 0.141706
-2.304494e-05 527.2068 -807.9296 -1 -4.371139e-08 0 200 200 200 255 0.184402 0.70594
6.608785e-06 -151.1914 -787.2852 -1 -4.371139e-08 0 200 200 200 255 0.192467 0.440941
-5.261557e-05 1203.704 -832.3693 -1 -4.371139e-08 0 200 200 200 255 0.174856 0.970197
4.744137e-05 -1085.332 -759.6777 -1 -4.371139e-08 0 200 200 200 255 0.203251 0.076042
-3.208304e-05 733.9744 -788.6425 -1 -4.371139e-08 0 200 200 200 255 0.191936 0.786709
-3.906193e-05 893.6328 -812.9589 -1 -4.371139e-08 0 200 200 200 255 0.182438 0.849075
-5.595058e-05 1280 -797.8124 -1 -4.371139e-08 0 200 200 200 255 0.188355 1
1.531969e-05 -350.4736 -854.6044 -1 -4.371139e-08 0 200 200 200 255 0.16617 0.363096
3.332544e-05 -762.3972 -837.71 -1 -4.371139e-08 0 200 200 200 255 0.17277 0.202189
5.595058e-05 -1280 -808.1249 -1 -4.371139e-08 0 200 200 200 255 0.184326 0
-9.464211e-06 216.5159 -790.3222 -1 -4.371139e-08 0 200 200 200 255 0.19128 0.584576
-4.688173e-05 1072.529 -845.1953 -1 -4.371139e-08 0 200 200 200 255 0.169846 0.918957
-1.397777e-06 31.9774 -906.6895 -1 -4.371139e-08 0 200 200 200 255 0.145824 0.512491
5.171189e-05 -1183.03 -877.5939 -1 -4.371139e-08 0 200 200 200 255 0.15719 0.037879
2.570136e-05 -587.9785 -865.6298 -1 -4.371139e-08 0 200 200 200 255 0.161863 0.270321
-2.972459e-05 680.0193 -916.5453 -1 -4.371139e-08 0 200 200 200 255 0.141974 0.765633
-1.212323e-05 277.3472 -910.7592 -1 -4.371139e-08 0 200 200 200 255 0.144235 0.608339
8.471001e-06 -193.7939 -969.0331 -1 -4.371139e-08 0 200 200 200 255 0.121471 0.424299
-5.203789e-05 1190.488 -964.1992 -1 -4.371139e-08 0 200 200 200 255 0.12336 0.965034
5.595058e-05 -1280 -948.7499 -1 -4.371139e-08 0 200 200 200 255 0.129395 0
-4.012055e-05 917.8513 -943.3984 -1 -4.371139e-08 0 200 200 200 255 0.131485 0.858536
-5.595058e-05 1280 -996.8749 -1 -4.371139e-08 0 200 200 200 255 0.110596 1
4.261849e-05 -974.9974 -999.9072 -1 -4.371139e-08 0 200 200 200 255 0.109411 0.119142
-2.32238e-05 531.2986 -1001.777 -1 -4.371139e-08 0 200 200 200 255 0.108681 0.707538
-4.703446e-05 1076.023 -1050.359 -1 -4.371139e-08 0 200 200 200 255 0.089704 0.920322
-1.562126e-05 357.3729 -1054.712 -1 -4.371139e-08 0 200 200 200 255 0.088003 0.639599
2.144622e-05 -490.6323 -1057.239 -1 -4.371139e-08 0 200 200 200 255 0.087016 0.308347
2.830077e-05 -647.4462 -995.2734 -1 -4.371139e-08 0 200 200 200 255 0.111221 0.247091
5.147999e-05 -1177.725 -1015.422 -1 -4.371139e-08 0 200 200 200 255 0.103351 0.039951
3.515095e-05 -804.1599 -1047.949 -1 -4.371139e-08 0 200 200 200 255 0.090645 0.185875
-6.675581e-06 152.7195 -1068.257 -1 -4.371139e-08 0 200 200 200 255 0.082712 0.559656
-3.634298e-05 831.4304 -1074.658 -1 -4.371139e-08 0 200 200 200 255 0.080212 0.824777
1.447577e-05 -331.167 -1087.271 -1 -4.371139e-08 0 200 200 200 255 0.075285 0.370638
5.595058e-05 -1280 -1091.875 -1 -4.371139e-08 0 200 200 200 255 0.073486 0
-2.878462e-05 658.5154 -1042.803 -1 -4.371139e-08 0 200 200 200 255 0.092655 0.757232
4.812948e-06 -110.1074 -1097.324 -1 -4.371139e-08 0 200 200 200 255 0.071358 0.456989
-1.937825e-05 443.3226 -1191.309 -1 -4.371139e-08 0 200 200 200 255 0.034645 0.673173
-4.409469e-05 1008.769 -1213.12 -1 -4.371139e-08 0 200 200 200 255 0.026125 0.894051
-5.289419e-05 1210.078 -1154.775 -1 -4.371139e-08 0 200 200 200 255 0.048916 0.972687
4.624302e-05 -1057.917 -1195.347 -1 -4.371139e-08 0 200 200 200 255 0.033068 0.086751
5.253305e-05 -1201.816 -1144.106 -1 -4.371139e-08 0 200 200 200 255 0.053083 0.03054
4.000446e-05 -915.1953 -1162.817 -1 -4.371139e-08 0 200 200 200 255 0.045774 0.142502
3.211676e-05 -734.7458 -1196.616 -1 -4.371139e-08 0 200 200 200 255 0.032572 0.21299
1.067557e-05 -244.2285 -1205.61 -1 -4.371139e-08 0 200 200 200 255 0.029058 0.404598
-2.757509e-05 630.8445 -1201.309 -1 -4.371139e-08 0 200 200 200 255 0.030739 0.746424
-1.901695e-06 43.50571 -1199.092 -1 -4.371139e-08 0 200 200 200 255 0.031605 0.516994
1.726771e-05 -395.0391 -1210.762 -1 -4.371139e-08 0 200 200 200 255 0.027046 0.345688
2.560232e-05 -585.7129 -1225.967 -1 -4.371139e-08 0 200 200 200 255 0.021107 0.271206
-1.063373e-05 243.2713 -1228.525 -1 -4.371139e-08 0 200 200 200 255 0.020107 0.595028
-3.486537e-05 797.6267 -1204.102 -1 -4.371139e-08 0 200 200 200 255 0.029648 0.811573
-5.595058e-05 1280 -1280 -1 -4.371139e-08 0 200 200 200 255 0 1
5.595058e-05 -1280 -1280 -1 -4.371139e-08 0 200 200 200 255 0 0
5.183899e-06 -118.5938 -1239.688 -1 -4.371139e-08 0 200 200 200 255 0.015747 0.453674
4.892944e-05 -1119.375 -1280 -1 -4.371139e-08 0 200 200 200 255 0 0.062744
4.031009e-05 -922.1873 -1280 -1 -4.371139e-08 0 200 200 200 255 0 0.139771
3.301575e-05 -755.3123 -1280 -1 -4.371139e-08 0 200 200 200 255 0 0.204956
2.693714e-05 -616.2499 -1280 -1 -4.371139e-08 0 200 200 200 255 0 0.259277
1.931497e-05 -441.875 -1280 -1 -4.371139e-08 0 200 200 200 255 0 0.327393
1.262166e-05 -288.75 -1280 -1 -4.371139e-08 0 200 200 200 255 0 0.387207
6.925523e-06 -158.4375 -1280 -1 -4.371139e-08 0 200 200 200 255 0 0.43811
1.338663e-06 -30.62504 -1280 -1 -4.371139e-08 0 200 200 200 255 0 0.488037
-4.603347e-06 105.3123 -1280 -1 -4.371139e-08 0 200 200 200 255 0 0.541138
-1.070928e-05 244.9998 -1280 -1 -4.371139e-08 0 200 200 200 255 0 0.595703
-1.641908e-05 375.6248 -1280 -1 -4.371139e-08 0 200 200 200 255 0 0.646729
-2.451252e-05 560.781 -1280 -1 -4.371139e-08 0 200 200 200 255 0 0.719055
-3.523547e-05 806.0935 -1280 -1 -4.371139e-08 0 200 200 200 255 0 0.81488
-4.354746e-05 996.2498 -1280 -1 -4.371139e-08 0 200 200 200 255 0 0.88916
-4.984462e-05 1140.312 -1280 -1 -4.371139e-08 0 200 200 200 255 0 0.945435
3 0 1 2 
3 1 3 2 
3 1 4 3 
3 4 5 3 
3 4 6 5 
3 6 7 5 
3 6 8 7 
3 8 9 7 
3 8 10 9 
3 10 11 9 
3 11 12 9 
3 11 13 12 
3 13 14 12 
3 13 15 14 
3 13 16 15 
3 16 17 15 
3 17 18 15 
3 17 19 18 
3 19 20 18 
3 19 21 20 
3 21 22 20 
3 21 23 22 
3 23 24 22 
3 23 25 24 
3 25 26 24 
3 25 27 26 
3 27 28 26 
3 27 29 28 
3 29 30 28 
3 15 31 14 
3 0 2 32 
3 9 12 33 
3 20 34 18 
3 2 35 32 
3 20 22 36 
3 24 37 22 
3 2 3 38 
3 9 33 39 
3 14 31 12 
3 24 26 40 
3 28 40 26 
3 30 41 28 
3 9 39 7 
3 2 38 35 
3 3 5 38 
3 15 18 31 
3 22 37 36 
3 12 42 33 
3 28 41 43 
3 18 34 44 
3 5 7 45 
3 12 31 42 
3 24 40 37 
3 31 18 46 
3 20 36 34 
3 37 40 47 
3 38 5 45 
3 7 48 45 
3 28 49 40 
3 7 39 48 
3 42 31 50 
3 36 37 51 
3 28 43 49 
3 41 52 43 
3 32 35 53 
3 36 51 34 
3 39 33 48 
3 31 46 50 
3 18 44 46 
3 37 47 51 
3 40 54 47 
3 40 49 54 
3 38 55 35 
3 48 33 56 
3 33 42 56 
3 44 57 46 
3 35 55 53 
3 38 45 58 
3 42 50 59 
3 46 57 50 
3 44 34 60 
3 43 61 49 
3 45 48 62 
3 42 59 56 
3 34 51 60 
3 43 52 61 
3 55 38 63 
3 53 55 64 
3 38 58 63 
3 51 47 65 
3 45 62 58 
3 44 60 57 
3 51 65 60 
3 47 54 66 
3 59 67 56 
3 52 68 61 
3 48 69 62 
3 66 65 47 
3 56 70 48 
3 50 71 59 
3 58 72 63 
3 50 57 71 
3 57 73 71 
3 49 61 74 
3 55 75 64 
3 57 60 73 
3 54 49 74 
3 58 62 72 
3 65 76 60 
3 63 77 55 
3 73 60 78 
3 48 70 69 
3 56 67 70 
3 64 75 79 
3 62 69 80 
3 54 74 81 
3 55 77 75 
3 72 62 80 
3 59 71 67 
3 66 54 81 
3 65 66 76 
3 61 68 82 
3 73 83 71 
3 73 78 83 
3 60 76 78 
3 66 81 84 
3 74 61 82 
3 66 84 76 
3 70 67 85 
3 63 86 77 
3 63 72 86 
3 69 70 87 
3 83 78 88 
3 76 89 78 
3 80 90 72 
3 69 87 80 
3 70 85 87 
3 68 91 82 
3 85 67 92 
3 67 93 92 
3 67 71 93 
3 72 90 86 
3 78 89 88 
3 74 82 94 
3 75 77 95 
3 77 86 95 
3 71 83 93 
3 81 74 94 
3 75 95 79 
3 80 87 96 
3 82 97 94 
3 82 91 97 
3 79 95 98 
3 86 90 99 
3 89 76 100 
3 84 81 101 
3 90 80 99 
3 81 94 101 
3 91 102 97 
3 86 99 95 
3 87 85 96 
3 83 88 103 
3 76 104 100 
3 76 84 104 
3 85 92 105 
3 92 93 105 
3 84 101 104 
3 94 97 106 
3 80 96 107 
3 83 103 93 
3 94 106 101 
3 88 89 108 
3 80 107 99 
3 88 108 103 
3 89 100 108 
3 97 109 106 
3 97 102 109 
3 95 110 98 
3 95 99 110 
3 85 111 96 
3 98 110 112 
3 85 113 111 
3 85 105 113 
3 105 93 114 
3 103 115 93 
3 102 116 109 
3 99 117 110 
3 99 107 118 
3 93 115 114 
3 103 108 115 
3 104 119 100 
3 113 105 114 
3 106 120 101 
3 96 111 121 
3 106 109 120 
3 100 119 108 
3 104 101 122 
3 96 123 107 
3 109 116 120 
3 99 118 117 
3 96 121 123 
3 119 104 122 
3 101 124 122 
3 114 115 125 
3 108 119 126 
3 101 120 124 
3 113 127 111 
3 112 110 128 
3 107 123 118 
3 113 114 127 
3 108 129 115 
3 111 127 121 
3 108 126 129 
3 110 117 130 
3 110 130 128 
3 118 123 131 
3 121 127 132 
3 120 133 124 
3 123 121 131 
3 114 134 127 
3 119 135 126 
3 119 122 135 
3 117 136 130 
3 114 125 134 
3 115 129 137 
3 122 124 133 
3 120 116 138 
3 117 118 136 
3 121 132 131 
3 115 137 125 
3 126 135 139 
3 116 140 138 
3 130 141 128 
3 118 142 136 
3 127 143 132 
3 118 131 142 
3 127 134 143 
3 122 133 144 
3 120 138 145 
3 135 122 146 
3 130 136 141 
3 122 144 146 
3 120 145 133 
3 139 135 146 
3 128 141 147 
3 141 136 148 
3 134 149 143 
3 137 129 150 
3 129 126 151 
3 131 132 152 
3 126 139 151 
3 132 143 153 
3 125 154 134 
3 133 155 144 
3 142 156 136 
3 131 152 142 
3 125 137 154 
3 140 157 138 
3 136 156 148 
3 134 154 149 
3 133 145 155 
3 137 150 158 
3 146 144 159 
3 145 138 160 
3 138 157 160 
3 137 158 154 
3 141 148 161 
3 129 151 150 
3 139 146 162 
3 147 141 163 
3 153 152 132 
3 141 161 163 
3 151 139 164 
3 139 162 164 
3 143 149 153 
3 146 159 162 
3 144 155 159 
3 150 151 164 
3 157 165 160 
3 148 156 161 
3 142 166 156 
3 158 150 167 
3 150 164 167 
3 152 166 142 
3 155 168 159 
3 156 169 161 
3 152 153 170 
3 149 154 171 
3 154 158 172 
3 161 173 163 
3 153 149 174 
3 155 145 168 
3 163 173 175 
3 156 166 169 
3 152 170 166 
3 159 176 162 
3 160 177 145 
3 162 176 178 
3 159 168 176 
3 158 167 172 
3 160 165 179 
3 154 172 171 
3 162 178 164 
3 174 149 180 
3 145 177 168 
3 160 179 177 
3 149 171 180 
3 161 169 173 
3 166 170 181 
3 167 164 182 
3 153 174 170 
3 169 166 183 
3 164 184 182 
3 169 185 173 
3 170 174 186 
3 164 178 184 
3 169 183 185 
3 166 181 183 
3 171 172 187 
3 170 186 188 
3 175 173 189 
3 173 190 189 
3 181 170 188 
3 172 167 191 
3 168 192 176 
3 181 193 183 
3 172 191 187 
3 181 188 193 
3 178 176 184 
3 168 177 192 
3 167 182 194 
3 173 185 190 
3 174 180 186 
3 167 194 191 
3 165 195 179 
3 179 196 177 
3 179 195 196 
3 177 197 192 
3 188 186 198 
3 171 187 199 
3 183 193 185 
3 186 180 199 
3 180 171 199 
3 184 176 200 
3 190 185 201 
3 188 198 193 
3 176 192 202 
3 177 196 197 
3 194 203 191 
3 192 197 202 
3 182 204 194 
3 184 200 182 
3 191 203 187 
3 176 202 200 
3 182 200 204 
3 193 198 205 
3 199 187 206 
3 185 207 201 
3 185 193 207 
3 186 208 198 
3 187 203 206 
3 197 196 209 
3 195 210 196 
3 199 208 186 
3 194 211 203 
3 193 205 207 
3 194 204 211 
3 202 197 212 
3 189 190 213 
3 199 206 214 
3 199 214 208 
3 198 208 215 
3 197 209 212 
3 211 216 203 
3 205 198 215 
3 204 217 211 
3 190 201 218 
3 207 219 201 
3 190 218 213 
3 204 200 220 
3 214 206 221 
3 196 210 222 
3 201 223 218 
3 203 216 206 
3 200 202 224 
3 212 225 202 
3 210 226 222 
3 208 214 227 
3 196 222 209 
3 208 227 215 
3 205 228 207 
3 205 215 228 
3 213 218 229 
3 219 207 228 
3 211 230 216 
3 211 217 230 
3 212 231 225 
3 212 209 231 
3 204 220 217 
3 201 219 223 
3 206 232 221 
3 206 216 232 
3 202 225 224 
3 209 222 231 
3 218 223 233 
3 200 224 220 
3 218 233 229 
3 228 215 234 
3 220 224 235 
3 214 221 227 
3 234 215 227 
3 230 217 236 
3 223 219 233 
3 216 230 232 
3 217 220 236 
3 225 235 224 
3 232 237 221 
3 222 238 231 
3 229 233 239 
3 227 221 237 
3 230 236 232 
3 225 231 240 
3 226 241 222 
3 219 242 233 
3 225 240 235 
3 220 235 243 
3 231 244 240 
3 236 220 245 
3 231 238 244 
3 222 241 238 
3 234 246 247 
3 234 227 246 
3 220 243 245 
3 233 242 248 
3 219 228 249 
3 234 247 228 
3 232 236 250 
3 219 249 242 
3 233 248 239 
3 228 247 249 
3 235 240 251 
3 227 252 246 
3 227 237 252 
3 239 248 253 
3 235 254 243 
3 232 255 237 
3 240 244 251 
3 237 255 252 
3 235 251 254 
3 232 250 255 
3 236 245 250 
3 245 243 256 
3 244 257 251 
3 238 258 244 
3 238 241 258 
3 242 259 248 
3 248 260 253 
3 248 259 260 
3 242 249 261 
3 249 247 262 
3 255 263 252 
3 251 264 254 
3 242 261 259 
3 247 246 262 
3 243 254 264 
3 255 250 265 
3 243 264 256 
3 246 252 266 
3 246 267 262 
3 245 256 268 
3 251 269 264 
3 241 270 258 
3 249 262 261 
3 252 263 266 
3 250 245 268 
3 251 257 269 
3 260 271 253 
3 246 266 267 
3 255 265 272 
3 244 258 257 
3 255 272 263 
3 265 250 268 
3 260 259 271 
3 271 259 273 
3 259 261 273 
3 261 274 273 
3 261 262 274 
3 262 275 274 
3 262 267 275 
3 267 276 275 
3 267 277 276 
3 267 266 277 
3 266 278 277 
3 266 263 278 
3 263 279 278 
3 263 272 279 
3 272 280 279 
3 272 265 280 
3 265 281 280 
3 265 268 281 
3 268 282 281 
3 268 283 282 
3 268 256 283 
3 256 284 283 
3 256 264 284 
3 264 285 284 
3 264 269 285 
3 269 257 285 
3 257 286 285 
3 257 287 286 
3 257 258 287 
3 258 270 287 
