ply
format ascii 1.0
comment VCGLIB generated
element vertex 8
property float x
property float y
property float z
property float nx
property float ny
property float nz
element face 12
property list uchar int vertex_indices
property list uchar float texcoord
end_header
-0.2 -0.9999999 -0.0499999 -0.5773499 -0.5773505 -0.5773504 
-0.2 -0.9999999 0.05000014 -0.5773503 -0.5773503 0.5773502 
-0.2 0.9999999 0.04999991 -0.5773499 0.5773505 0.5773504 
-0.2 0.9999999 -0.05000014 -0.5773503 0.5773503 -0.5773502 
0.2 0.9999999 0.04999991 0.5773504 0.5773503 0.5773501 
0.2 0.9999999 -0.05000014 0.5773499 0.5773504 -0.5773506 
0.2 -0.9999999 0.05000014 0.5773499 -0.5773504 0.5773506 
0.2 -0.9999999 -0.0499999 0.5773504 -0.5773503 -0.5773501 
3 0 1 2 6 0.266808 0.985124 0.240717 0.985124 0.240717 0.463293 
3 0 2 3 6 0.266808 0.985124 0.240717 0.463293 0.266808 0.463293 
3 3 2 4 6 0.235372 0.372211 0.235372 0.398303 0.131006 0.398303 
3 3 4 5 6 0.235372 0.372211 0.131006 0.398303 0.131006 0.372211 
3 5 4 6 6 0.240717 0.985124 0.214625 0.985124 0.214625 0.463293 
3 5 6 7 6 0.240717 0.985124 0.214625 0.463293 0.240717 0.463293 
3 7 6 1 6 0.131006 0.372211 0.131006 0.398303 0.026640 0.398303 
3 7 1 0 6 0.131006 0.372211 0.026640 0.398303 0.026640 0.372211 
3 3 5 7 6 0.110259 0.463293 0.214625 0.463293 0.214625 0.985124 
3 3 7 0 6 0.110259 0.463293 0.214625 0.985124 0.110259 0.985124 
3 4 2 1 6 0.005893 0.463293 0.110259 0.463293 0.110259 0.985124 
3 4 1 6 6 0.005893 0.463293 0.110259 0.985124 0.005893 0.985124 
